<svg width="876" height="876" viewBox="0 0 876 876" fill="none" xmlns="http://www.w3.org/2000/svg">
<rect width="216" height="37" transform="matrix(-1 0 0 1 364 475)" fill="#FDAED3"/>
<rect width="216" height="37" transform="matrix(-1 0 0 1 327 512)" fill="#FDAED3"/>
<rect width="216" height="37" transform="matrix(-1 0 0 1 290 549)" fill="#FDAED3"/>
<rect width="216" height="37" transform="matrix(-1 0 0 1 216 623)" fill="#FDAED3"/>
<rect width="216" height="37" transform="matrix(-1 0 0 1 253 586)" fill="#FDAED3"/>
<rect x="401" y="512" width="216" height="37" transform="rotate(90 401 512)" fill="#FDAED3"/>
<rect x="364" y="549" width="216" height="37" transform="rotate(90 364 549)" fill="#FDAED3"/>
<rect x="327" y="586" width="216" height="37" transform="rotate(90 327 586)" fill="#FDAED3"/>
<rect x="253" y="660" width="216" height="37" transform="rotate(90 253 660)" fill="#FDAED3"/>
<rect x="290" y="623" width="216" height="37" transform="rotate(90 290 623)" fill="#FDAED3"/>
<rect x="179" y="660" width="37" height="37" fill="#5B5D7F"/>
<rect x="142" y="697" width="37" height="37" fill="#5B5D7F"/>
<rect x="105" y="734" width="37" height="37" fill="#5B5D7F"/>
<rect x="364" y="475" width="37" height="37" fill="#5B5D7F"/>
<rect x="512" y="475" width="216" height="37" fill="#FDAED3"/>
<rect x="549" y="512" width="216" height="37" fill="#FDAED3"/>
<rect x="586" y="549" width="216" height="37" fill="#FDAED3"/>
<rect x="660" y="623" width="216" height="37" fill="#FDAED3"/>
<rect x="623" y="586" width="216" height="37" fill="#FDAED3"/>
<rect width="216" height="37" transform="matrix(0 1 1 0 475 512)" fill="#FDAED3"/>
<rect width="216" height="37" transform="matrix(0 1 1 0 512 549)" fill="#FDAED3"/>
<rect width="216" height="37" transform="matrix(0 1 1 0 549 586)" fill="#FDAED3"/>
<rect width="216" height="37" transform="matrix(0 1 1 0 623 660)" fill="#FDAED3"/>
<rect width="216" height="37" transform="matrix(0 1 1 0 586 623)" fill="#FDAED3"/>
<rect width="37" height="37" transform="matrix(-1 0 0 1 697 660)" fill="#5B5D7F"/>
<rect width="37" height="37" transform="matrix(-1 0 0 1 734 697)" fill="#5B5D7F"/>
<rect width="37" height="37" transform="matrix(-1 0 0 1 771 734)" fill="#5B5D7F"/>
<rect width="37" height="37" transform="matrix(-1 0 0 1 512 475)" fill="#5B5D7F"/>
<rect width="37" height="37" transform="matrix(-1 0 0 1 438 728)" fill="#5B5D7F"/>
<rect x="438" y="838" width="37" height="37" transform="rotate(-180 438 838)" fill="#5B5D7F"/>
<rect width="37" height="11" transform="matrix(-1 0 0 1 438 765)" fill="#5B5D7F"/>
<rect x="438" y="801" width="37" height="11" transform="rotate(-180 438 801)" fill="#5B5D7F"/>
<rect width="37" height="37" transform="matrix(-1 0 0 1 401 765)" fill="#5B5D7F"/>
<rect width="37" height="37" transform="matrix(-1 0 0 1 475 728)" fill="#5B5D7F"/>
<rect x="475" y="838" width="37" height="37" transform="rotate(-180 475 838)" fill="#5B5D7F"/>
<rect width="37" height="11" transform="matrix(-1 0 0 1 475 765)" fill="#5B5D7F"/>
<rect x="475" y="801" width="37" height="11" transform="rotate(-180 475 801)" fill="#5B5D7F"/>
<rect width="37" height="37" transform="matrix(-1 0 0 1 512 765)" fill="#5B5D7F"/>
<rect width="37" height="37" transform="matrix(-1 0 0 1 438 38)" fill="#5B5D7F"/>
<rect x="438" y="148" width="37" height="37" transform="rotate(-180 438 148)" fill="#5B5D7F"/>
<rect width="37" height="11" transform="matrix(-1 0 0 1 438 75)" fill="#5B5D7F"/>
<rect x="438" y="111" width="37" height="11" transform="rotate(-180 438 111)" fill="#5B5D7F"/>
<rect width="37" height="37" transform="matrix(-1 0 0 1 401 75)" fill="#5B5D7F"/>
<rect width="37" height="37" transform="matrix(-1 0 0 1 475 38)" fill="#5B5D7F"/>
<rect x="475" y="148" width="37" height="37" transform="rotate(-180 475 148)" fill="#5B5D7F"/>
<rect width="37" height="11" transform="matrix(-1 0 0 1 475 75)" fill="#5B5D7F"/>
<rect x="475" y="111" width="37" height="11" transform="rotate(-180 475 111)" fill="#5B5D7F"/>
<rect width="37" height="37" transform="matrix(-1 0 0 1 512 75)" fill="#5B5D7F"/>
<rect width="37" height="37" transform="matrix(0 1 1 0 728 438)" fill="#5B5D7F"/>
<rect x="838" y="438" width="37" height="37" transform="rotate(90 838 438)" fill="#5B5D7F"/>
<rect width="37" height="11" transform="matrix(0 1 1 0 765 438)" fill="#5B5D7F"/>
<rect x="801" y="438" width="37" height="11" transform="rotate(90 801 438)" fill="#5B5D7F"/>
<rect width="37" height="37" transform="matrix(0 1 1 0 765 475)" fill="#5B5D7F"/>
<rect width="37" height="37" transform="matrix(0 1 1 0 728 401)" fill="#5B5D7F"/>
<rect x="838" y="401" width="37" height="37" transform="rotate(90 838 401)" fill="#5B5D7F"/>
<rect width="37" height="11" transform="matrix(0 1 1 0 765 401)" fill="#5B5D7F"/>
<rect x="801" y="401" width="37" height="11" transform="rotate(90 801 401)" fill="#5B5D7F"/>
<rect width="37" height="37" transform="matrix(0 1 1 0 765 364)" fill="#5B5D7F"/>
<rect width="37" height="37" transform="matrix(0 1 1 0 38 438)" fill="#5B5D7F"/>
<rect x="148" y="438" width="37" height="37" transform="rotate(90 148 438)" fill="#5B5D7F"/>
<rect width="37" height="11" transform="matrix(0 1 1 0 75 438)" fill="#5B5D7F"/>
<rect x="111" y="438" width="37" height="11" transform="rotate(90 111 438)" fill="#5B5D7F"/>
<rect width="37" height="37" transform="matrix(0 1 1 0 75 475)" fill="#5B5D7F"/>
<rect width="37" height="37" transform="matrix(0 1 1 0 38 401)" fill="#5B5D7F"/>
<rect x="148" y="401" width="37" height="37" transform="rotate(90 148 401)" fill="#5B5D7F"/>
<rect width="37" height="11" transform="matrix(0 1 1 0 75 401)" fill="#5B5D7F"/>
<rect x="111" y="401" width="37" height="11" transform="rotate(90 111 401)" fill="#5B5D7F"/>
<rect width="37" height="37" transform="matrix(0 1 1 0 75 364)" fill="#5B5D7F"/>
<rect x="420" y="475" width="37" height="253" fill="#5B5D7F"/>
<rect x="728" y="420" width="37" height="253" transform="rotate(90 728 420)" fill="#5B5D7F"/>
<rect x="401" y="419" width="37" height="253" transform="rotate(90 401 419)" fill="#5B5D7F"/>
<rect x="401" y="438" width="37" height="37" fill="#5B5D7F"/>
<rect x="438" y="438" width="37" height="37" fill="#5B5D7F"/>
<rect x="364" y="401" width="216" height="37" transform="rotate(-180 364 401)" fill="#FDAED3"/>
<rect x="327" y="364" width="216" height="37" transform="rotate(-180 327 364)" fill="#FDAED3"/>
<rect x="290" y="327" width="216" height="37" transform="rotate(-180 290 327)" fill="#FDAED3"/>
<rect x="216" y="253" width="216" height="37" transform="rotate(-180 216 253)" fill="#FDAED3"/>
<rect x="253" y="290" width="216" height="37" transform="rotate(-180 253 290)" fill="#FDAED3"/>
<rect width="216" height="37" transform="matrix(0 -1 -1 0 401 364)" fill="#FDAED3"/>
<rect width="216" height="37" transform="matrix(0 -1 -1 0 364 327)" fill="#FDAED3"/>
<rect width="216" height="37" transform="matrix(0 -1 -1 0 327 290)" fill="#FDAED3"/>
<rect width="216" height="37" transform="matrix(0 -1 -1 0 253 216)" fill="#FDAED3"/>
<rect width="216" height="37" transform="matrix(0 -1 -1 0 290 253)" fill="#FDAED3"/>
<rect width="37" height="37" transform="matrix(1 0 0 -1 179 216)" fill="#5B5D7F"/>
<rect width="37" height="37" transform="matrix(1 0 0 -1 142 179)" fill="#5B5D7F"/>
<rect width="37" height="37" transform="matrix(1 0 0 -1 105 142)" fill="#5B5D7F"/>
<rect width="37" height="37" transform="matrix(1 0 0 -1 364 401)" fill="#5B5D7F"/>
<rect width="216" height="37" transform="matrix(1 0 0 -1 512 401)" fill="#FDAED3"/>
<rect width="216" height="37" transform="matrix(1 0 0 -1 549 364)" fill="#FDAED3"/>
<rect width="216" height="37" transform="matrix(1 0 0 -1 586 327)" fill="#FDAED3"/>
<rect width="216" height="37" transform="matrix(1 0 0 -1 660 253)" fill="#FDAED3"/>
<rect width="216" height="37" transform="matrix(1 0 0 -1 623 290)" fill="#FDAED3"/>
<rect x="475" y="364" width="216" height="37" transform="rotate(-90 475 364)" fill="#FDAED3"/>
<rect x="512" y="327" width="216" height="37" transform="rotate(-90 512 327)" fill="#FDAED3"/>
<rect x="549" y="290" width="216" height="37" transform="rotate(-90 549 290)" fill="#FDAED3"/>
<rect x="623" y="216" width="216" height="37" transform="rotate(-90 623 216)" fill="#FDAED3"/>
<rect x="586" y="253" width="216" height="37" transform="rotate(-90 586 253)" fill="#FDAED3"/>
<rect x="697" y="216" width="37" height="37" transform="rotate(-180 697 216)" fill="#5B5D7F"/>
<rect x="734" y="179" width="37" height="37" transform="rotate(-180 734 179)" fill="#5B5D7F"/>
<rect x="771" y="142" width="37" height="37" transform="rotate(-180 771 142)" fill="#5B5D7F"/>
<rect x="512" y="401" width="37" height="37" transform="rotate(-180 512 401)" fill="#5B5D7F"/>
<rect width="37" height="253" transform="matrix(1 0 0 -1 420 401)" fill="#5B5D7F"/>
<rect width="37" height="37" transform="matrix(1 0 0 -1 401 438)" fill="#5B5D7F"/>
<rect width="37" height="37" transform="matrix(1 0 0 -1 438 438)" fill="#5B5D7F"/>
</svg>
